<?xml version="1.0" encoding="UTF-8" standalone="no"?>
<!DOCTYPE svg PUBLIC "-//W3C//DTD SVG 1.1//EN" "http://www.w3.org/Graphics/SVG/1.1/DTD/svg11.dtd">
<svg version="1.1" xmlns="http://www.w3.org/2000/svg" xmlns:xlink="http://www.w3.org/1999/xlink" preserveAspectRatio="xMidYMid meet" viewBox="80.52999999999999 90.12999999999998 304.77000000000004 74.96000000000002" width="300.77" height="70.96"><defs><path d="M103.99 157.83C114.74 157.83 123.47 149.09 123.47 138.35C123.47 123.89 108.4 102.94 104.01 97.15C99.65 103.07 84.51 124.61 84.51 138.35C84.51 149.09 93.26 157.83 103.99 157.83ZM103.99 160.81C91.61 160.81 81.53 150.74 81.53 138.35C81.53 121.37 101.95 94.89 102.82 93.77C102.89 93.67 103.28 93.17 103.97 92.28C104.68 93.16 105.08 93.65 105.16 93.75C106.03 94.83 126.46 120.47 126.46 138.35C126.46 150.74 116.38 160.81 103.99 160.81" id="a11DMWQB7z"></path><path d="M103.99 157.83C114.74 157.83 123.47 149.09 123.47 138.35C123.47 123.89 108.4 102.94 104.01 97.15C99.65 103.07 84.51 124.61 84.51 138.35C84.51 149.09 93.26 157.83 103.99 157.83ZM103.99 160.81C91.61 160.81 81.53 150.74 81.53 138.35C81.53 121.37 101.95 94.89 102.82 93.77C102.89 93.67 103.28 93.17 103.97 92.28C104.68 93.16 105.08 93.65 105.16 93.75C106.03 94.83 126.46 120.47 126.46 138.35C126.46 150.74 116.38 160.81 103.99 160.81" id="aqU2RjNJE"></path><path d="M178.19 91.42C179.86 91.42 181.44 91.73 182.92 92.34C184.41 92.95 185.51 93.52 186.2 94.06C186.89 94.59 187.73 95.34 188.71 96.32C189 95.9 191.29 92.53 191.58 92.11C191.88 91.66 192.18 91.42 192.49 91.42C192.79 91.42 192.97 91.52 193.03 91.69C193.08 91.86 193.11 92.22 193.11 92.77C193.11 94.13 193.11 104.98 193.11 106.34C193.11 106.95 193.06 107.33 192.99 107.48C192.91 107.62 192.65 107.69 192.2 107.69C191.82 107.69 191.59 107.64 191.51 107.52C191.43 107.42 191.35 107.15 191.28 106.72C190.7 102.61 189.27 99.33 186.99 96.88C184.72 94.44 182 93.21 178.83 93.21C177.92 93.21 176.96 93.32 175.95 93.52C174.94 93.72 173.7 94.21 172.24 94.99C170.78 95.77 169.49 96.81 168.36 98.1C167.24 99.39 166.27 101.26 165.45 103.71C164.63 106.14 164.23 108.98 164.23 112.21C164.23 115.41 164.63 118.24 165.45 120.7C166.27 123.15 167.24 125.01 168.36 126.28C169.49 127.56 170.78 128.59 172.24 129.37C173.7 130.15 174.94 130.65 175.97 130.87C177 131.08 177.98 131.18 178.9 131.18C182.16 131.18 185.04 130.02 187.55 127.69C190.07 125.37 191.45 122.25 191.7 118.31C191.73 118.14 191.74 118 191.74 117.92C191.74 117.84 191.76 117.75 191.8 117.65C191.84 117.56 191.91 117.5 191.99 117.46C192.08 117.43 192.21 117.4 192.36 117.4C192.86 117.4 193.11 117.73 193.11 118.38C193.11 122 191.72 125.34 188.94 128.38C186.16 131.41 182.57 132.92 178.19 132.92C172.78 132.92 168.12 130.92 164.21 126.91C160.3 122.9 158.35 117.98 158.35 112.15C158.35 106.41 160.31 101.52 164.23 97.48C168.15 93.45 172.81 91.42 178.19 91.42Z" id="cxreuGHOn"></path><path d="M178.19 91.42C179.86 91.42 181.44 91.73 182.92 92.34C184.41 92.95 185.51 93.52 186.2 94.06C186.89 94.59 187.73 95.34 188.71 96.32C189 95.9 191.29 92.53 191.58 92.11C191.88 91.66 192.18 91.42 192.49 91.42C192.79 91.42 192.97 91.52 193.03 91.69C193.08 91.86 193.11 92.22 193.11 92.77C193.11 94.13 193.11 104.98 193.11 106.34C193.11 106.95 193.06 107.33 192.99 107.48C192.91 107.62 192.65 107.69 192.2 107.69C191.82 107.69 191.59 107.64 191.51 107.52C191.43 107.42 191.35 107.15 191.28 106.72C190.7 102.61 189.27 99.33 186.99 96.88C184.72 94.44 182 93.21 178.83 93.21C177.92 93.21 176.96 93.32 175.95 93.52C174.94 93.72 173.7 94.21 172.24 94.99C170.78 95.77 169.49 96.81 168.36 98.1C167.24 99.39 166.27 101.26 165.45 103.71C164.63 106.14 164.23 108.98 164.23 112.21C164.23 115.41 164.63 118.24 165.45 120.7C166.27 123.15 167.24 125.01 168.36 126.28C169.49 127.56 170.78 128.59 172.24 129.37C173.7 130.15 174.94 130.65 175.97 130.87C177 131.08 177.98 131.18 178.9 131.18C182.16 131.18 185.04 130.02 187.55 127.69C190.07 125.37 191.45 122.25 191.7 118.31C191.73 118.14 191.74 118 191.74 117.92C191.74 117.84 191.76 117.75 191.8 117.65C191.84 117.56 191.91 117.5 191.99 117.46C192.08 117.43 192.21 117.4 192.36 117.4C192.86 117.4 193.11 117.73 193.11 118.38C193.11 122 191.72 125.34 188.94 128.38C186.16 131.41 182.57 132.92 178.19 132.92C172.78 132.92 168.12 130.92 164.21 126.91C160.3 122.9 158.35 117.98 158.35 112.15C158.35 106.41 160.31 101.52 164.23 97.48C168.15 93.45 172.81 91.42 178.19 91.42Z" id="a1lg3xmoY"></path><path d="M215.12 116.76C215.12 116.55 215.12 114.87 215.12 114.66C215.12 112.31 214.49 110.51 213.25 109.25C212.02 107.99 210.62 107.36 209.06 107.36C206.26 107.36 204.2 108.24 202.88 109.99C204.01 110.03 204.77 110.32 205.18 110.89C205.59 111.46 205.8 112.03 205.8 112.61C205.8 113.37 205.56 114 205.08 114.5C204.6 114.98 203.97 115.22 203.19 115.22C202.41 115.22 201.77 114.99 201.28 114.52C200.78 114.05 200.53 113.39 200.53 112.55C200.53 110.69 201.37 109.15 203.04 107.92C204.73 106.69 206.77 106.07 209.16 106.07C212.29 106.07 214.9 107.13 216.99 109.23C217.63 109.88 218.12 110.63 218.44 111.47C218.77 112.3 218.95 112.99 218.98 113.54C219.01 114.1 219.04 114.91 219.04 115.97C219.04 117.11 219.04 126.24 219.04 127.38C219.04 127.61 219.07 127.91 219.14 128.27C219.22 128.65 219.44 129.07 219.79 129.54C220.13 130.01 220.59 130.25 221.16 130.25C222.54 130.25 223.22 129.03 223.19 126.59C223.19 126.38 223.19 125.32 223.19 123.4C223.34 123.4 224.49 123.4 224.64 123.4C224.64 125.32 224.64 126.38 224.64 126.59C224.64 128.63 224.11 130.04 223.04 130.83C221.98 131.62 220.94 132.01 219.95 132.01C218.69 132.01 217.66 131.55 216.86 130.62C216.07 129.7 215.61 128.6 215.49 127.32C214.92 128.77 213.98 129.97 212.67 130.91C211.35 131.85 209.8 132.32 208.02 132.32C206.65 132.32 205.31 132.14 204.02 131.8C202.73 131.46 201.55 130.81 200.49 129.85C199.42 128.9 198.89 127.69 198.89 126.24C198.89 123.01 200.79 120.54 204.6 118.83C206.88 117.73 210.39 117.04 215.12 116.76ZM208.42 131.03C210.02 131.03 211.53 130.42 212.96 129.19C214.4 127.95 215.12 126.11 215.12 123.67C215.12 123.1 215.12 118.53 215.12 117.96C210.9 118.12 207.87 119.04 206.03 120.72C204.2 122.4 203.29 124.22 203.29 126.18C203.29 127.59 203.79 128.76 204.78 129.67C205.79 130.58 207.01 131.03 208.42 131.03Z" id="ePmVsIg82"></path><path d="M215.12 116.76C215.12 116.55 215.12 114.87 215.12 114.66C215.12 112.31 214.49 110.51 213.25 109.25C212.02 107.99 210.62 107.36 209.06 107.36C206.26 107.36 204.2 108.24 202.88 109.99C204.01 110.03 204.77 110.32 205.18 110.89C205.59 111.46 205.8 112.03 205.8 112.61C205.8 113.37 205.56 114 205.08 114.5C204.6 114.98 203.97 115.22 203.19 115.22C202.41 115.22 201.77 114.99 201.28 114.52C200.78 114.05 200.53 113.39 200.53 112.55C200.53 110.69 201.37 109.15 203.04 107.92C204.73 106.69 206.77 106.07 209.16 106.07C212.29 106.07 214.9 107.13 216.99 109.23C217.63 109.88 218.12 110.63 218.44 111.47C218.77 112.3 218.95 112.99 218.98 113.54C219.01 114.1 219.04 114.91 219.04 115.97C219.04 117.11 219.04 126.24 219.04 127.38C219.04 127.61 219.07 127.91 219.14 128.27C219.22 128.65 219.44 129.07 219.79 129.54C220.13 130.01 220.59 130.25 221.16 130.25C222.54 130.25 223.22 129.03 223.19 126.59C223.19 126.38 223.19 125.32 223.19 123.4C223.34 123.4 224.49 123.4 224.64 123.4C224.64 125.32 224.64 126.38 224.64 126.59C224.64 128.63 224.11 130.04 223.04 130.83C221.98 131.62 220.94 132.01 219.95 132.01C218.69 132.01 217.66 131.55 216.86 130.62C216.07 129.7 215.61 128.6 215.49 127.32C214.92 128.77 213.98 129.97 212.67 130.91C211.35 131.85 209.8 132.32 208.02 132.32C206.65 132.32 205.31 132.14 204.02 131.8C202.73 131.46 201.55 130.81 200.49 129.85C199.42 128.9 198.89 127.69 198.89 126.24C198.89 123.01 200.79 120.54 204.6 118.83C206.88 117.73 210.39 117.04 215.12 116.76ZM208.42 131.03C210.02 131.03 211.53 130.42 212.96 129.19C214.4 127.95 215.12 126.11 215.12 123.67C215.12 123.1 215.12 118.53 215.12 117.96C210.9 118.12 207.87 119.04 206.03 120.72C204.2 122.4 203.29 124.22 203.29 126.18C203.29 127.59 203.79 128.76 204.78 129.67C205.79 130.58 207.01 131.03 208.42 131.03Z" id="a3XH95TNPr"></path><path d="M230.69 129.54C231.16 129.3 231.4 128.55 231.4 127.32C231.4 125.79 231.4 113.56 231.4 112.03C231.4 110.62 231.14 109.73 230.65 109.37C230.16 109.01 228.94 108.83 226.98 108.83C226.98 108.71 226.98 108.12 226.98 107.05C227.78 106.99 234.21 106.51 235.01 106.45C235.01 110.04 235.01 112.04 235.01 112.44C236.79 108.45 239.6 106.45 243.45 106.45C247.9 106.45 250.45 108.31 251.07 112.03C251.72 110.58 252.72 109.28 254.08 108.15C255.44 107.02 257.2 106.45 259.35 106.45C262.21 106.45 264.21 107.16 265.34 108.56C266.17 109.52 266.67 110.53 266.84 111.59C267 112.64 267.09 114.55 267.09 117.3C267.09 118.39 267.09 127.1 267.09 128.19C267.12 129 267.45 129.49 268.06 129.67C268.68 129.83 269.85 129.91 271.55 129.91C271.55 130.09 271.55 131.5 271.55 131.68C267.67 131.57 265.55 131.51 265.18 131.51C264.87 131.51 262.71 131.57 258.7 131.68C258.7 131.5 258.7 130.09 258.7 129.91C260.72 129.91 261.97 129.79 262.44 129.54C262.92 129.3 263.17 128.55 263.17 127.32C263.17 125.99 263.17 115.35 263.17 114.02C263.17 112.1 262.86 110.56 262.27 109.41C261.68 108.27 260.56 107.69 258.93 107.69C256.95 107.69 255.17 108.53 253.6 110.18C252.02 111.84 251.23 114.07 251.23 116.84C251.23 117.89 251.23 126.27 251.23 127.32C251.23 128.55 251.47 129.3 251.94 129.54C252.41 129.79 253.66 129.91 255.7 129.91C255.7 130.09 255.7 131.5 255.7 131.68C251.81 131.57 249.67 131.51 249.28 131.51C248.98 131.51 246.83 131.57 242.83 131.68C242.83 131.5 242.83 130.09 242.83 129.91C244.86 129.91 246.11 129.79 246.59 129.54C247.05 129.3 247.29 128.55 247.29 127.32C247.29 125.99 247.29 115.35 247.29 114.02C247.29 112.1 246.99 110.56 246.4 109.41C245.8 108.27 244.69 107.69 243.06 107.69C241.09 107.69 239.31 108.53 237.73 110.18C236.15 111.84 235.36 114.07 235.36 116.84C235.36 117.89 235.36 126.27 235.36 127.32C235.36 128.55 235.59 129.3 236.07 129.54C236.55 129.79 237.79 129.91 239.8 129.91C239.8 130.09 239.8 131.5 239.8 131.68C235.91 131.57 233.78 131.51 233.41 131.51C233.12 131.51 230.97 131.57 226.98 131.68C226.98 131.33 226.98 130.09 226.98 129.91C229 129.91 230.24 129.79 230.69 129.54Z" id="drydJILXR"></path><path d="M230.69 129.54C231.16 129.3 231.4 128.55 231.4 127.32C231.4 125.79 231.4 113.56 231.4 112.03C231.4 110.62 231.14 109.73 230.65 109.37C230.16 109.01 228.94 108.83 226.98 108.83C226.98 108.71 226.98 108.12 226.98 107.05C227.78 106.99 234.21 106.51 235.01 106.45C235.01 110.04 235.01 112.04 235.01 112.44C236.79 108.45 239.6 106.45 243.45 106.45C247.9 106.45 250.45 108.31 251.07 112.03C251.72 110.58 252.72 109.28 254.08 108.15C255.44 107.02 257.2 106.45 259.35 106.45C262.21 106.45 264.21 107.16 265.34 108.56C266.17 109.52 266.67 110.53 266.84 111.59C267 112.64 267.09 114.55 267.09 117.3C267.09 118.39 267.09 127.1 267.09 128.19C267.12 129 267.45 129.49 268.06 129.67C268.68 129.83 269.85 129.91 271.55 129.91C271.55 130.09 271.55 131.5 271.55 131.68C267.67 131.57 265.55 131.51 265.18 131.51C264.87 131.51 262.71 131.57 258.7 131.68C258.7 131.5 258.7 130.09 258.7 129.91C260.72 129.91 261.97 129.79 262.44 129.54C262.92 129.3 263.17 128.55 263.17 127.32C263.17 125.99 263.17 115.35 263.17 114.02C263.17 112.1 262.86 110.56 262.27 109.41C261.68 108.27 260.56 107.69 258.93 107.69C256.95 107.69 255.17 108.53 253.6 110.18C252.02 111.84 251.23 114.07 251.23 116.84C251.23 117.89 251.23 126.27 251.23 127.32C251.23 128.55 251.47 129.3 251.94 129.54C252.41 129.79 253.66 129.91 255.7 129.91C255.7 130.09 255.7 131.5 255.7 131.68C251.81 131.57 249.67 131.51 249.28 131.51C248.98 131.51 246.83 131.57 242.83 131.68C242.83 131.5 242.83 130.09 242.83 129.91C244.86 129.91 246.11 129.79 246.59 129.54C247.05 129.3 247.29 128.55 247.29 127.32C247.29 125.99 247.29 115.35 247.29 114.02C247.29 112.1 246.99 110.56 246.4 109.41C245.8 108.27 244.69 107.69 243.06 107.69C241.09 107.69 239.31 108.53 237.73 110.18C236.15 111.84 235.36 114.07 235.36 116.84C235.36 117.89 235.36 126.27 235.36 127.32C235.36 128.55 235.59 129.3 236.07 129.54C236.55 129.79 237.79 129.91 239.8 129.91C239.8 130.09 239.8 131.5 239.8 131.68C235.91 131.57 233.78 131.51 233.41 131.51C233.12 131.51 230.97 131.57 226.98 131.68C226.98 131.33 226.98 130.09 226.98 129.91C229 129.91 230.24 129.79 230.69 129.54Z" id="c7ulpvo17"></path><path d="M278.45 129.54C278.92 129.3 279.16 128.55 279.16 127.32C279.16 125.78 279.16 113.5 279.16 111.97C279.16 110.56 278.92 109.68 278.45 109.35C277.98 109.01 276.81 108.83 274.94 108.83C274.94 108.71 274.94 108.12 274.94 107.05C275.74 106.99 282.11 106.51 282.91 106.45C282.91 119.01 282.91 125.99 282.91 127.38C282.91 128.52 283.12 129.22 283.54 129.5C283.94 129.78 285.08 129.91 286.94 129.91C286.94 130.09 286.94 131.5 286.94 131.68C283.05 131.57 281.07 131.51 281 131.51C280.47 131.51 278.38 131.57 274.72 131.68C274.72 131.33 274.72 130.09 274.72 129.91C276.74 129.91 277.99 129.79 278.45 129.54ZM280.13 93.48C280.97 93.48 281.69 93.76 282.29 94.33C282.88 94.9 283.18 95.62 283.18 96.51C283.18 97.39 282.88 98.12 282.29 98.69C281.69 99.26 280.97 99.54 280.13 99.54C279.26 99.54 278.54 99.24 277.97 98.62C277.4 98.01 277.12 97.29 277.12 96.49C277.12 95.73 277.41 95.03 277.99 94.41C278.59 93.79 279.3 93.48 280.13 93.48Z" id="b5Z8d4WjfB"></path><path d="M278.45 129.54C278.92 129.3 279.16 128.55 279.16 127.32C279.16 125.78 279.16 113.5 279.16 111.97C279.16 110.56 278.92 109.68 278.45 109.35C277.98 109.01 276.81 108.83 274.94 108.83C274.94 108.71 274.94 108.12 274.94 107.05C275.74 106.99 282.11 106.51 282.91 106.45C282.91 119.01 282.91 125.99 282.91 127.38C282.91 128.52 283.12 129.22 283.54 129.5C283.94 129.78 285.08 129.91 286.94 129.91C286.94 130.09 286.94 131.5 286.94 131.68C283.05 131.57 281.07 131.51 281 131.51C280.47 131.51 278.38 131.57 274.72 131.68C274.72 131.33 274.72 130.09 274.72 129.91C276.74 129.91 277.99 129.79 278.45 129.54ZM280.13 93.48C280.97 93.48 281.69 93.76 282.29 94.33C282.88 94.9 283.18 95.62 283.18 96.51C283.18 97.39 282.88 98.12 282.29 98.69C281.69 99.26 280.97 99.54 280.13 99.54C279.26 99.54 278.54 99.24 277.97 98.62C277.4 98.01 277.12 97.29 277.12 96.49C277.12 95.73 277.41 95.03 277.99 94.41C278.59 93.79 279.3 93.48 280.13 93.48Z" id="a4sGVuudjy"></path><path d="M295.84 129.54C296.31 129.3 296.54 128.55 296.54 127.32C296.54 124.35 296.54 100.6 296.54 97.63C296.54 96.22 296.29 95.34 295.8 94.99C295.31 94.63 294.08 94.45 292.1 94.45C292.1 94.33 292.1 93.74 292.1 92.67C292.92 92.61 299.48 92.13 300.3 92.07C300.3 113.22 300.3 124.97 300.3 127.32C300.3 128.55 300.54 129.3 301.03 129.54C301.51 129.79 302.75 129.91 304.76 129.91C304.76 130.09 304.76 131.5 304.76 131.68C304.3 131.68 303.59 131.67 302.62 131.64C301.65 131.6 300.81 131.57 300.11 131.55C299.41 131.53 298.84 131.51 298.43 131.51C297.99 131.51 295.88 131.57 292.1 131.68C292.1 131.33 292.1 130.09 292.1 129.91C294.13 129.91 295.38 129.79 295.84 129.54Z" id="b1VFp9CJf5"></path><path d="M295.84 129.54C296.31 129.3 296.54 128.55 296.54 127.32C296.54 124.35 296.54 100.6 296.54 97.63C296.54 96.22 296.29 95.34 295.8 94.99C295.31 94.63 294.08 94.45 292.1 94.45C292.1 94.33 292.1 93.74 292.1 92.67C292.92 92.61 299.48 92.13 300.3 92.07C300.3 113.22 300.3 124.97 300.3 127.32C300.3 128.55 300.54 129.3 301.03 129.54C301.51 129.79 302.75 129.91 304.76 129.91C304.76 130.09 304.76 131.5 304.76 131.68C304.3 131.68 303.59 131.67 302.62 131.64C301.65 131.6 300.81 131.57 300.11 131.55C299.41 131.53 298.84 131.51 298.43 131.51C297.99 131.51 295.88 131.57 292.1 131.68C292.1 131.33 292.1 130.09 292.1 129.91C294.13 129.91 295.38 129.79 295.84 129.54Z" id="d1p4Bu3Jph"></path><path d="M310.17 129.54C310.64 129.3 310.88 128.55 310.88 127.32C310.88 124.35 310.88 100.6 310.88 97.63C310.88 96.22 310.63 95.34 310.13 94.99C309.65 94.63 308.42 94.45 306.44 94.45C306.44 94.33 306.44 93.74 306.44 92.67C307.26 92.61 313.82 92.13 314.64 92.07C314.64 113.22 314.64 124.97 314.64 127.32C314.64 128.55 314.87 129.3 315.36 129.54C315.84 129.79 317.09 129.91 319.1 129.91C319.1 130.09 319.1 131.5 319.1 131.68C318.64 131.68 317.92 131.67 316.96 131.64C315.99 131.6 315.15 131.57 314.45 131.55C313.74 131.53 313.18 131.51 312.77 131.51C312.32 131.51 310.21 131.57 306.44 131.68C306.44 131.33 306.44 130.09 306.44 129.91C308.47 129.91 309.72 129.79 310.17 129.54Z" id="e6ptuDpwX5"></path><path d="M310.17 129.54C310.64 129.3 310.88 128.55 310.88 127.32C310.88 124.35 310.88 100.6 310.88 97.63C310.88 96.22 310.63 95.34 310.13 94.99C309.65 94.63 308.42 94.45 306.44 94.45C306.44 94.33 306.44 93.74 306.44 92.67C307.26 92.61 313.82 92.13 314.64 92.07C314.64 113.22 314.64 124.97 314.64 127.32C314.64 128.55 314.87 129.3 315.36 129.54C315.84 129.79 317.09 129.91 319.1 129.91C319.1 130.09 319.1 131.5 319.1 131.68C318.64 131.68 317.92 131.67 316.96 131.64C315.99 131.6 315.15 131.57 314.45 131.55C313.74 131.53 313.18 131.51 312.77 131.51C312.32 131.51 310.21 131.57 306.44 131.68C306.44 131.33 306.44 130.09 306.44 129.91C308.47 129.91 309.72 129.79 310.17 129.54Z" id="a2Utxsk9K"></path><path d="M333.88 106.07C337.23 106.07 339.76 107.17 341.5 109.35C343.23 111.52 344.11 114.18 344.11 117.3C344.11 117.87 344.03 118.21 343.88 118.31C343.74 118.43 343.35 118.48 342.7 118.48C341.1 118.48 328.34 118.48 326.74 118.48C326.74 122.37 327.31 125.23 328.46 127.05C330.07 129.6 332.22 130.87 334.92 130.87C335.29 130.87 335.7 130.84 336.14 130.76C336.58 130.69 337.26 130.48 338.18 130.16C339.08 129.84 339.94 129.23 340.73 128.36C341.53 127.49 342.16 126.36 342.64 124.98C342.75 124.45 342.99 124.2 343.36 124.21C343.86 124.21 344.11 124.43 344.11 124.87C344.11 125.2 343.93 125.75 343.57 126.51C343.21 127.26 342.68 128.08 341.99 128.98C341.3 129.87 340.29 130.65 338.96 131.33C337.64 131.98 336.17 132.32 334.59 132.32C331.23 132.32 328.3 131.06 325.79 128.52C323.27 125.98 322.01 122.84 322.01 119.1C322.01 115.52 323.16 112.46 325.46 109.91C327.76 107.35 330.57 106.07 333.88 106.07ZM340.15 114.77C340.01 113.87 339.74 112.81 339.34 111.57C338.93 110.33 338.26 109.32 337.32 108.54C336.4 107.76 335.24 107.36 333.88 107.36C333.27 107.36 332.63 107.49 331.97 107.75C331.31 108.02 330.57 108.47 329.77 109.1C328.98 109.72 328.3 110.76 327.74 112.19C327.18 113.62 326.87 115.32 326.8 117.3C329.51 117.3 339 117.3 340.35 117.3C340.35 116.5 340.28 115.65 340.15 114.77Z" id="a4PRDnmj9"></path><path d="M333.88 106.07C337.23 106.07 339.76 107.17 341.5 109.35C343.23 111.52 344.11 114.18 344.11 117.3C344.11 117.87 344.03 118.21 343.88 118.31C343.74 118.43 343.35 118.48 342.7 118.48C341.1 118.48 328.34 118.48 326.74 118.48C326.74 122.37 327.31 125.23 328.46 127.05C330.07 129.6 332.22 130.87 334.92 130.87C335.29 130.87 335.7 130.84 336.14 130.76C336.58 130.69 337.26 130.48 338.18 130.16C339.08 129.84 339.94 129.23 340.73 128.36C341.53 127.49 342.16 126.36 342.64 124.98C342.75 124.45 342.99 124.2 343.36 124.21C343.86 124.21 344.11 124.43 344.11 124.87C344.11 125.2 343.93 125.75 343.57 126.51C343.21 127.26 342.68 128.08 341.99 128.98C341.3 129.87 340.29 130.65 338.96 131.33C337.64 131.98 336.17 132.32 334.59 132.32C331.23 132.32 328.3 131.06 325.79 128.52C323.27 125.98 322.01 122.84 322.01 119.1C322.01 115.52 323.16 112.46 325.46 109.91C327.76 107.35 330.57 106.07 333.88 106.07ZM340.15 114.77C340.01 113.87 339.74 112.81 339.34 111.57C338.93 110.33 338.26 109.32 337.32 108.54C336.4 107.76 335.24 107.36 333.88 107.36C333.27 107.36 332.63 107.49 331.97 107.75C331.31 108.02 330.57 108.47 329.77 109.1C328.98 109.72 328.3 110.76 327.74 112.19C327.18 113.62 326.87 115.32 326.8 117.3C329.51 117.3 339 117.3 340.35 117.3C340.35 116.5 340.28 115.65 340.15 114.77Z" id="c1RmEcdxuj"></path><path d="M353.73 91.13C354.48 91.13 355.12 91.37 355.62 91.82C356.11 92.27 356.36 92.92 356.36 93.75C356.36 94.12 356.34 94.42 356.3 94.62C356.17 95.77 355.54 101.52 354.41 111.86C354.28 111.86 353.21 111.86 353.08 111.86C351.91 101.52 351.26 95.77 351.13 94.62C351.1 94.42 351.09 94.12 351.09 93.75C351.09 92.81 351.37 92.14 351.94 91.73C352.52 91.33 353.12 91.13 353.73 91.13Z" id="iuJzvpmoL"></path><path d="M353.73 91.13C354.48 91.13 355.12 91.37 355.62 91.82C356.11 92.27 356.36 92.92 356.36 93.75C356.36 94.12 356.34 94.42 356.3 94.62C356.17 95.77 355.54 101.52 354.41 111.86C354.28 111.86 353.21 111.86 353.08 111.86C351.91 101.52 351.26 95.77 351.13 94.62C351.1 94.42 351.09 94.12 351.09 93.75C351.09 92.81 351.37 92.14 351.94 91.73C352.52 91.33 353.12 91.13 353.73 91.13Z" id="d1Z61arvcN"></path><path d="M363.67 122.53C363.69 122.38 363.76 122.25 363.88 122.13C363.99 122.02 364.15 121.97 364.37 121.97C364.63 121.97 364.82 122.02 364.91 122.13C365.02 122.25 365.11 122.52 365.18 122.94C365.76 125.57 366.67 127.58 367.9 128.96C369.14 130.34 370.89 131.03 373.13 131.03C375.27 131.03 376.89 130.57 377.97 129.62C379.04 128.67 379.58 127.41 379.58 125.85C379.58 123.07 377.6 121.32 373.63 120.62C371.35 120.15 369.72 119.76 368.77 119.46C367.83 119.16 366.94 118.66 366.12 117.96C364.47 116.62 363.65 115.01 363.65 113.11C363.65 111.21 364.36 109.57 365.81 108.17C367.25 106.77 369.58 106.07 372.78 106.07C374.91 106.07 376.7 106.62 378.15 107.69C378.58 107.36 378.9 107.06 379.13 106.78C379.62 106.31 380 106.07 380.27 106.07C380.57 106.07 380.75 106.18 380.81 106.38C380.86 106.58 380.89 106.95 380.89 107.48C380.89 108.06 380.89 112.64 380.89 113.21C380.89 113.64 380.88 113.93 380.85 114.08C380.83 114.24 380.77 114.37 380.66 114.48C380.55 114.57 380.38 114.62 380.14 114.62C379.71 114.62 379.49 114.44 379.46 114.08C379.17 109.48 376.94 107.17 372.78 107.17C370.52 107.17 368.89 107.61 367.88 108.48C366.89 109.34 366.39 110.35 366.39 111.51C366.39 112.16 366.54 112.74 366.84 113.23C367.14 113.73 367.5 114.13 367.9 114.41C368.3 114.69 368.88 114.97 369.62 115.24C370.37 115.51 370.97 115.69 371.43 115.78C371.88 115.88 372.55 116.02 373.42 116.2C376.46 116.78 378.63 117.7 379.92 118.94C381.5 120.53 382.3 122.35 382.3 124.37C382.3 126.63 381.54 128.52 380.02 130.04C378.49 131.56 376.2 132.32 373.13 132.32C370.67 132.32 368.57 131.49 366.84 129.83C366.61 130.05 366.4 130.27 366.24 130.47C366.08 130.67 365.96 130.8 365.89 130.87C365.83 130.94 365.79 131 365.76 131.06C365.75 131.1 365.72 131.14 365.68 131.18C364.92 131.94 364.45 132.32 364.27 132.32C363.96 132.32 363.78 132.22 363.73 132.03C363.67 131.83 363.65 131.47 363.65 130.93C363.65 129.42 363.65 124.15 363.65 123.4C363.65 122.97 363.65 122.68 363.67 122.53Z" id="b1sLMKQBCv"></path><path d="M363.67 122.53C363.69 122.38 363.76 122.25 363.88 122.13C363.99 122.02 364.15 121.97 364.37 121.97C364.63 121.97 364.82 122.02 364.91 122.13C365.02 122.25 365.11 122.52 365.18 122.94C365.76 125.57 366.67 127.58 367.9 128.96C369.14 130.34 370.89 131.03 373.13 131.03C375.27 131.03 376.89 130.57 377.97 129.62C379.04 128.67 379.58 127.41 379.58 125.85C379.58 123.07 377.6 121.32 373.63 120.62C371.35 120.15 369.72 119.76 368.77 119.46C367.83 119.16 366.94 118.66 366.12 117.96C364.47 116.62 363.65 115.01 363.65 113.11C363.65 111.21 364.36 109.57 365.81 108.17C367.25 106.77 369.58 106.07 372.78 106.07C374.91 106.07 376.7 106.62 378.15 107.69C378.58 107.36 378.9 107.06 379.13 106.78C379.62 106.31 380 106.07 380.27 106.07C380.57 106.07 380.75 106.18 380.81 106.38C380.86 106.58 380.89 106.95 380.89 107.48C380.89 108.06 380.89 112.64 380.89 113.21C380.89 113.64 380.88 113.93 380.85 114.08C380.83 114.24 380.77 114.37 380.66 114.48C380.55 114.57 380.38 114.62 380.14 114.62C379.71 114.62 379.49 114.44 379.46 114.08C379.17 109.48 376.94 107.17 372.78 107.17C370.52 107.17 368.89 107.61 367.88 108.48C366.89 109.34 366.39 110.35 366.39 111.51C366.39 112.16 366.54 112.74 366.84 113.23C367.14 113.73 367.5 114.13 367.9 114.41C368.3 114.69 368.88 114.97 369.62 115.24C370.37 115.51 370.97 115.69 371.43 115.78C371.88 115.88 372.55 116.02 373.42 116.2C376.46 116.78 378.63 117.7 379.92 118.94C381.5 120.53 382.3 122.35 382.3 124.37C382.3 126.63 381.54 128.52 380.02 130.04C378.49 131.56 376.2 132.32 373.13 132.32C370.67 132.32 368.57 131.49 366.84 129.83C366.61 130.05 366.4 130.27 366.24 130.47C366.08 130.67 365.96 130.8 365.89 130.87C365.83 130.94 365.79 131 365.76 131.06C365.75 131.1 365.72 131.14 365.68 131.18C364.92 131.94 364.45 132.32 364.27 132.32C363.96 132.32 363.78 132.22 363.73 132.03C363.67 131.83 363.65 131.47 363.65 130.93C363.65 129.42 363.65 124.15 363.65 123.4C363.65 122.97 363.65 122.68 363.67 122.53Z" id="b1OynALg5O"></path><path d="M164.63 150.76C165.2 150.14 165.88 149.64 166.69 149.25C167.48 148.86 168.4 148.67 169.42 148.67C170.64 148.67 171.69 148.94 172.58 149.47C173.46 150 174.12 150.69 174.57 151.55C174.37 151.69 172.8 152.78 172.6 152.92C172.42 152.55 172.2 152.23 171.96 151.99C171.71 151.73 171.43 151.52 171.15 151.36C170.87 151.21 170.57 151.11 170.25 151.05C169.95 150.98 169.65 150.95 169.36 150.95C168.71 150.95 168.14 151.08 167.66 151.34C167.19 151.59 166.79 151.93 166.48 152.34C166.17 152.75 165.93 153.23 165.77 153.75C165.61 154.28 165.52 154.8 165.52 155.33C165.52 155.91 165.61 156.47 165.79 157.01C165.99 157.55 166.25 158.03 166.58 158.44C166.92 158.84 167.33 159.17 167.81 159.41C168.29 159.66 168.82 159.79 169.4 159.79C169.69 159.79 170 159.76 170.32 159.68C170.64 159.61 170.96 159.49 171.25 159.33C171.54 159.17 171.81 158.96 172.06 158.71C172.3 158.45 172.5 158.14 172.64 157.77C172.85 157.9 174.55 158.88 174.76 159C174.53 159.49 174.23 159.92 173.84 160.31C173.46 160.68 173.01 161 172.52 161.26C172.03 161.53 171.51 161.73 170.96 161.86C170.41 161.98 169.86 162.05 169.32 162.05C168.38 162.05 167.51 161.86 166.73 161.47C165.95 161.07 165.28 160.55 164.71 159.91C164.14 159.28 163.7 158.55 163.39 157.73C163.08 156.92 162.93 156.09 162.93 155.24C162.93 154.44 163.08 153.65 163.37 152.86C163.65 152.07 164.08 151.37 164.63 150.76Z" id="dDp8MEJXo"></path><path d="M164.63 150.76C165.2 150.14 165.88 149.64 166.69 149.25C167.48 148.86 168.4 148.67 169.42 148.67C170.64 148.67 171.69 148.94 172.58 149.47C173.46 150 174.12 150.69 174.57 151.55C174.37 151.69 172.8 152.78 172.6 152.92C172.42 152.55 172.2 152.23 171.96 151.99C171.71 151.73 171.43 151.52 171.15 151.36C170.87 151.21 170.57 151.11 170.25 151.05C169.95 150.98 169.65 150.95 169.36 150.95C168.71 150.95 168.14 151.08 167.66 151.34C167.19 151.59 166.79 151.93 166.48 152.34C166.17 152.75 165.93 153.23 165.77 153.75C165.61 154.28 165.52 154.8 165.52 155.33C165.52 155.91 165.61 156.47 165.79 157.01C165.99 157.55 166.25 158.03 166.58 158.44C166.92 158.84 167.33 159.17 167.81 159.41C168.29 159.66 168.82 159.79 169.4 159.79C169.69 159.79 170 159.76 170.32 159.68C170.64 159.61 170.96 159.49 171.25 159.33C171.54 159.17 171.81 158.96 172.06 158.71C172.3 158.45 172.5 158.14 172.64 157.77C172.85 157.9 174.55 158.88 174.76 159C174.53 159.49 174.23 159.92 173.84 160.31C173.46 160.68 173.01 161 172.52 161.26C172.03 161.53 171.51 161.73 170.96 161.86C170.41 161.98 169.86 162.05 169.32 162.05C168.38 162.05 167.51 161.86 166.73 161.47C165.95 161.07 165.28 160.55 164.71 159.91C164.14 159.28 163.7 158.55 163.39 157.73C163.08 156.92 162.93 156.09 162.93 155.24C162.93 154.44 163.08 153.65 163.37 152.86C163.65 152.07 164.08 151.37 164.63 150.76Z" id="bB3Auodhh"></path><path d="M191.5 148.75L196.52 161.95L193.86 161.95L192.64 158.65L188.03 158.65L186.83 161.95L184.17 161.95L189.22 148.75L191.5 148.75ZM190.36 151.67L188.47 156.84L192.18 156.84L190.36 151.67Z" id="f5f1mRb6c"></path><path d="M191.5 148.75L196.52 161.95L193.86 161.95L192.64 158.65L188.03 158.65L186.83 161.95L184.17 161.95L189.22 148.75L191.5 148.75ZM190.36 151.67L188.47 156.84L192.18 156.84L190.36 151.67Z" id="a4azD7gNUh"></path><path d="M209.51 161.95L206.94 161.95L206.94 148.75L208.93 148.75L215.82 157.4L215.82 148.77L218.37 148.77L218.37 161.95L216.29 161.95L209.51 153.48L209.51 161.95Z" id="a69FzBDeC9"></path><path d="M209.51 161.95L206.94 161.95L206.94 148.75L208.93 148.75L215.82 157.4L215.82 148.77L218.37 148.77L218.37 161.95L216.29 161.95L209.51 153.48L209.51 161.95Z" id="av4Culgvk"></path><path d="M230.13 148.75C233.01 148.75 234.6 148.75 234.92 148.75C236 148.75 236.95 148.93 237.77 149.27C238.58 149.62 239.26 150.09 239.8 150.68C240.35 151.28 240.76 151.98 241.02 152.77C241.3 153.58 241.44 154.43 241.44 155.33C241.44 156.34 241.28 157.25 240.98 158.07C240.68 158.87 240.24 159.56 239.68 160.14C239.11 160.71 238.42 161.15 237.62 161.47C236.82 161.79 235.91 161.95 234.92 161.95C234.28 161.95 232.69 161.95 230.13 161.95C230.13 159.31 230.13 150.07 230.13 148.75ZM237.83 152.21C237.5 151.83 237.08 151.53 236.58 151.32C236.1 151.1 235.54 150.99 234.92 150.99C234.78 150.99 234.04 150.99 232.7 150.99C232.7 151.86 232.7 158.83 232.7 159.7C234.04 159.7 234.78 159.7 234.92 159.7C235.56 159.7 236.12 159.6 236.6 159.37C237.1 159.14 237.51 158.83 237.83 158.44C238.16 158.06 238.42 157.6 238.6 157.07C238.77 156.54 238.87 155.95 238.87 155.33C238.87 154.69 238.77 154.11 238.6 153.58C238.42 153.05 238.16 152.59 237.83 152.21Z" id="ctS5C1u5P"></path><path d="M230.13 148.75C233.01 148.75 234.6 148.75 234.92 148.75C236 148.75 236.95 148.93 237.77 149.27C238.58 149.62 239.26 150.09 239.8 150.68C240.35 151.28 240.76 151.98 241.02 152.77C241.3 153.58 241.44 154.43 241.44 155.33C241.44 156.34 241.28 157.25 240.98 158.07C240.68 158.87 240.24 159.56 239.68 160.14C239.11 160.71 238.42 161.15 237.62 161.47C236.82 161.79 235.91 161.95 234.92 161.95C234.28 161.95 232.69 161.95 230.13 161.95C230.13 159.31 230.13 150.07 230.13 148.75ZM237.83 152.21C237.5 151.83 237.08 151.53 236.58 151.32C236.1 151.1 235.54 150.99 234.92 150.99C234.78 150.99 234.04 150.99 232.7 150.99C232.7 151.86 232.7 158.83 232.7 159.7C234.04 159.7 234.78 159.7 234.92 159.7C235.56 159.7 236.12 159.6 236.6 159.37C237.1 159.14 237.51 158.83 237.83 158.44C238.16 158.06 238.42 157.6 238.6 157.07C238.77 156.54 238.87 155.95 238.87 155.33C238.87 154.69 238.77 154.11 238.6 153.58C238.42 153.05 238.16 152.59 237.83 152.21Z" id="cFbiPnexT"></path><path d="M252.44 148.75L255.01 148.75L255.01 159.7L261.73 159.7L261.73 161.95L252.44 161.95L252.44 148.75Z" id="baWIkB8T0"></path><path d="M252.44 148.75L255.01 148.75L255.01 159.7L261.73 159.7L261.73 161.95L252.44 161.95L252.44 148.75Z" id="aqHbjvwVT"></path><path d="M281.43 161.95L272.25 161.95L272.25 148.75L281.26 148.75L281.26 150.99L274.83 150.99L274.83 154.16L280.39 154.16L280.39 156.26L274.83 156.26L274.83 159.7L281.43 159.7L281.43 161.95Z" id="ha6ho6rp0"></path><path d="M281.43 161.95L272.25 161.95L272.25 148.75L281.26 148.75L281.26 150.99L274.83 150.99L274.83 154.16L280.39 154.16L280.39 156.26L274.83 156.26L274.83 159.7L281.43 159.7L281.43 161.95Z" id="cytu3rkdL"></path><path d="M313.1 151.86C312.88 151.71 312.6 151.57 312.27 151.43C311.94 151.28 311.58 151.15 311.19 151.05C310.82 150.96 310.43 150.91 310.03 150.91C309.33 150.91 308.8 151.04 308.45 151.3C308.11 151.55 307.94 151.91 307.94 152.38C307.94 152.66 308 152.89 308.12 153.06C308.26 153.25 308.45 153.41 308.7 153.54C308.95 153.68 309.26 153.81 309.64 153.92C310.01 154.03 310.45 154.15 310.94 154.27C311.59 154.43 312.18 154.63 312.71 154.83C313.23 155.03 313.67 155.27 314.04 155.58C314.4 155.87 314.69 156.22 314.89 156.63C315.08 157.05 315.18 157.56 315.18 158.17C315.18 158.87 315.04 159.49 314.78 160C314.52 160.49 314.16 160.9 313.7 161.22C313.25 161.53 312.72 161.75 312.13 161.88C311.55 162.02 310.93 162.09 310.3 162.09C309.31 162.09 308.32 161.95 307.36 161.66C306.39 161.35 305.52 160.93 304.76 160.39C304.87 160.17 305.77 158.39 305.88 158.17C305.99 158.28 306.19 158.43 306.48 158.6C306.78 158.79 307.13 158.97 307.52 159.14C307.92 159.33 308.36 159.48 308.85 159.6C309.33 159.73 309.83 159.79 310.34 159.79C311.75 159.79 312.46 159.34 312.46 158.44C312.46 158.15 312.37 157.91 312.21 157.71C312.04 157.51 311.81 157.33 311.51 157.19C311.21 157.04 310.85 156.9 310.43 156.78C310.01 156.66 309.54 156.52 309.04 156.36C308.4 156.2 307.84 156.01 307.38 155.8C306.92 155.6 306.53 155.36 306.21 155.08C305.91 154.8 305.68 154.49 305.53 154.12C305.37 153.75 305.3 153.31 305.3 152.79C305.3 152.14 305.43 151.54 305.67 151.03C305.92 150.51 306.26 150.07 306.69 149.72C307.13 149.37 307.65 149.1 308.23 148.91C308.8 148.74 309.44 148.64 310.11 148.64C311.04 148.64 311.89 148.8 312.67 149.08C313.45 149.37 314.14 149.72 314.72 150.12C314.49 150.53 313.81 151.78 313.58 152.19C313.5 152.12 313.34 152 313.1 151.86Z" id="a4Gripfny3"></path><path d="M313.1 151.86C312.88 151.71 312.6 151.57 312.27 151.43C311.94 151.28 311.58 151.15 311.19 151.05C310.82 150.96 310.43 150.91 310.03 150.91C309.33 150.91 308.8 151.04 308.45 151.3C308.11 151.55 307.94 151.91 307.94 152.38C307.94 152.66 308 152.89 308.12 153.06C308.26 153.25 308.45 153.41 308.7 153.54C308.95 153.68 309.26 153.81 309.64 153.92C310.01 154.03 310.45 154.15 310.94 154.27C311.59 154.43 312.18 154.63 312.71 154.83C313.23 155.03 313.67 155.27 314.04 155.58C314.4 155.87 314.69 156.22 314.89 156.63C315.08 157.05 315.18 157.56 315.18 158.17C315.18 158.87 315.04 159.49 314.78 160C314.52 160.49 314.16 160.9 313.7 161.22C313.25 161.53 312.72 161.75 312.13 161.88C311.55 162.02 310.93 162.09 310.3 162.09C309.31 162.09 308.32 161.95 307.36 161.66C306.39 161.35 305.52 160.93 304.76 160.39C304.87 160.17 305.77 158.39 305.88 158.17C305.99 158.28 306.19 158.43 306.48 158.6C306.78 158.79 307.13 158.97 307.52 159.14C307.92 159.33 308.36 159.48 308.85 159.6C309.33 159.73 309.83 159.79 310.34 159.79C311.75 159.79 312.46 159.34 312.46 158.44C312.46 158.15 312.37 157.91 312.21 157.71C312.04 157.51 311.81 157.33 311.51 157.19C311.21 157.04 310.85 156.9 310.43 156.78C310.01 156.66 309.54 156.52 309.04 156.36C308.4 156.2 307.84 156.01 307.38 155.8C306.92 155.6 306.53 155.36 306.21 155.08C305.91 154.8 305.68 154.49 305.53 154.12C305.37 153.75 305.3 153.31 305.3 152.79C305.3 152.14 305.43 151.54 305.67 151.03C305.92 150.51 306.26 150.07 306.69 149.72C307.13 149.37 307.65 149.1 308.23 148.91C308.8 148.74 309.44 148.64 310.11 148.64C311.04 148.64 311.89 148.8 312.67 149.08C313.45 149.37 314.14 149.72 314.72 150.12C314.49 150.53 313.81 151.78 313.58 152.19C313.5 152.12 313.34 152 313.1 151.86Z" id="a1EnYVgLxY"></path><path d="M337.18 161.95L334.63 161.95L334.63 156.32L328.65 156.32L328.65 161.95L326.08 161.95L326.08 148.75L328.65 148.75L328.65 154.08L334.63 154.08L334.63 148.75L337.18 148.75L337.18 161.95Z" id="bk6VPwK55"></path><path d="M337.18 161.95L334.63 161.95L334.63 156.32L328.65 156.32L328.65 161.95L326.08 161.95L326.08 148.75L328.65 148.75L328.65 154.08L334.63 154.08L334.63 148.75L337.18 148.75L337.18 161.95Z" id="b9FWQf6G"></path><path d="M349.91 159.97C349.35 159.34 348.92 158.62 348.6 157.82C348.3 157.02 348.15 156.19 348.15 155.35C348.15 154.47 348.3 153.62 348.62 152.82C348.95 152.02 349.41 151.3 349.99 150.68C350.57 150.06 351.26 149.57 352.05 149.21C352.83 148.84 353.69 148.64 354.62 148.64C355.57 148.64 356.45 148.85 357.23 149.25C358.02 149.64 358.69 150.15 359.25 150.78C359.81 151.4 360.25 152.13 360.55 152.94C360.87 153.74 361.03 154.56 361.03 155.39C361.03 156.26 360.86 157.1 360.53 157.9C360.21 158.7 359.77 159.42 359.21 160.04C358.63 160.65 357.95 161.13 357.15 161.49C356.36 161.85 355.5 162.03 354.58 162.03C353.61 162.03 352.73 161.84 351.94 161.47C351.15 161.1 350.47 160.6 349.91 159.97ZM351.76 158.42C352.08 158.82 352.49 159.15 352.96 159.39C353.44 159.64 353.99 159.77 354.6 159.77C355.21 159.77 355.75 159.64 356.22 159.39C356.7 159.13 357.11 158.79 357.44 158.38C357.77 157.97 358.02 157.49 358.19 156.97C358.35 156.43 358.44 155.89 358.44 155.35C358.44 154.78 358.34 154.24 358.17 153.71C357.99 153.17 357.73 152.7 357.4 152.3C357.08 151.89 356.68 151.56 356.2 151.32C355.72 151.08 355.19 150.95 354.6 150.95C353.98 150.95 353.42 151.08 352.94 151.32C352.45 151.57 352.04 151.91 351.71 152.32C351.39 152.73 351.15 153.2 350.99 153.73C350.82 154.26 350.74 154.8 350.74 155.35C350.74 155.92 350.82 156.47 350.99 157.01C351.16 157.54 351.42 158.01 351.76 158.42Z" id="a4davvPEk9"></path><path d="M349.91 159.97C349.35 159.34 348.92 158.62 348.6 157.82C348.3 157.02 348.15 156.19 348.15 155.35C348.15 154.47 348.3 153.62 348.62 152.82C348.95 152.02 349.41 151.3 349.99 150.68C350.57 150.06 351.26 149.57 352.05 149.21C352.83 148.84 353.69 148.64 354.62 148.64C355.57 148.64 356.45 148.85 357.23 149.25C358.02 149.64 358.69 150.15 359.25 150.78C359.81 151.4 360.25 152.13 360.55 152.94C360.87 153.74 361.03 154.56 361.03 155.39C361.03 156.26 360.86 157.1 360.53 157.9C360.21 158.7 359.77 159.42 359.21 160.04C358.63 160.65 357.95 161.13 357.15 161.49C356.36 161.85 355.5 162.03 354.58 162.03C353.61 162.03 352.73 161.84 351.94 161.47C351.15 161.1 350.47 160.6 349.91 159.97ZM351.76 158.42C352.08 158.82 352.49 159.15 352.96 159.39C353.44 159.64 353.99 159.77 354.6 159.77C355.21 159.77 355.75 159.64 356.22 159.39C356.7 159.13 357.11 158.79 357.44 158.38C357.77 157.97 358.02 157.49 358.19 156.97C358.35 156.43 358.44 155.89 358.44 155.35C358.44 154.78 358.34 154.24 358.17 153.71C357.99 153.17 357.73 152.7 357.4 152.3C357.08 151.89 356.68 151.56 356.2 151.32C355.72 151.08 355.19 150.95 354.6 150.95C353.98 150.95 353.42 151.08 352.94 151.32C352.45 151.57 352.04 151.91 351.71 152.32C351.39 152.73 351.15 153.2 350.99 153.73C350.82 154.26 350.74 154.8 350.74 155.35C350.74 155.92 350.82 156.47 350.99 157.01C351.16 157.54 351.42 158.01 351.76 158.42Z" id="c8Fz7GX0o"></path><path d="M372 148.75C375.36 148.75 377.22 148.75 377.6 148.75C378.21 148.75 378.77 148.88 379.28 149.14C379.79 149.39 380.23 149.73 380.61 150.14C380.98 150.55 381.27 151.03 381.48 151.55C381.68 152.08 381.79 152.6 381.79 153.13C381.79 153.7 381.69 154.24 381.5 154.77C381.3 155.3 381.03 155.77 380.67 156.18C380.31 156.58 379.87 156.91 379.36 157.15C378.85 157.4 378.29 157.53 377.68 157.53C377.47 157.53 376.44 157.53 374.57 157.53C374.57 157.82 374.57 159.3 374.57 161.95L372 161.95C372 154.03 372 149.63 372 148.75ZM377.54 155.26C378 155.26 378.4 155.08 378.72 154.7C379.04 154.32 379.2 153.79 379.2 153.13C379.2 152.8 379.14 152.5 379.05 152.23C378.95 151.98 378.82 151.75 378.66 151.57C378.49 151.38 378.29 151.23 378.08 151.13C377.87 151.04 377.65 150.99 377.43 150.99C377.24 150.99 376.29 150.99 374.57 150.99C374.57 151.27 374.57 152.7 374.57 155.26C376.42 155.26 377.41 155.26 377.54 155.26Z" id="b1DKceLHzO"></path><path d="M372 148.75C375.36 148.75 377.22 148.75 377.6 148.75C378.21 148.75 378.77 148.88 379.28 149.14C379.79 149.39 380.23 149.73 380.61 150.14C380.98 150.55 381.27 151.03 381.48 151.55C381.68 152.08 381.79 152.6 381.79 153.13C381.79 153.7 381.69 154.24 381.5 154.77C381.3 155.3 381.03 155.77 380.67 156.18C380.31 156.58 379.87 156.91 379.36 157.15C378.85 157.4 378.29 157.53 377.68 157.53C377.47 157.53 376.44 157.53 374.57 157.53C374.57 157.82 374.57 159.3 374.57 161.95L372 161.95C372 154.03 372 149.63 372 148.75ZM377.54 155.26C378 155.26 378.4 155.08 378.72 154.7C379.04 154.32 379.2 153.79 379.2 153.13C379.2 152.8 379.14 152.5 379.05 152.23C378.95 151.98 378.82 151.75 378.66 151.57C378.49 151.38 378.29 151.23 378.08 151.13C377.87 151.04 377.65 150.99 377.43 150.99C377.24 150.99 376.29 150.99 374.57 150.99C374.57 151.27 374.57 152.7 374.57 155.26C376.42 155.26 377.41 155.26 377.54 155.26Z" id="fMBQnZgca"></path><path d="M121.54 157.57C129.97 157.57 136.84 150.7 136.84 142.26C136.84 130.9 124.99 114.43 121.55 109.88C118.12 114.53 106.23 131.47 106.23 142.26C106.23 150.7 113.1 157.57 121.54 157.57ZM121.54 159.9C111.81 159.9 103.89 151.99 103.89 142.26C103.88 128.91 119.93 108.11 120.61 107.23C120.67 107.15 120.97 106.76 121.52 106.06C122.08 106.75 122.39 107.14 122.45 107.22C123.14 108.07 139.19 128.21 139.19 142.26C139.19 151.99 131.27 159.91 121.54 159.91" id="c24I56gHXl"></path><path d="M121.54 157.57C129.97 157.57 136.84 150.7 136.84 142.26C136.84 130.9 124.99 114.43 121.55 109.88C118.12 114.53 106.23 131.47 106.23 142.26C106.23 150.7 113.1 157.57 121.54 157.57ZM121.54 159.9C111.81 159.9 103.89 151.99 103.89 142.26C103.88 128.91 119.93 108.11 120.61 107.23C120.67 107.15 120.97 106.76 121.52 106.06C122.08 106.75 122.39 107.14 122.45 107.22C123.14 108.07 139.19 128.21 139.19 142.26C139.19 151.99 131.27 159.91 121.54 159.91" id="bOdnfH7SU"></path></defs><g><g><use xlink:href="#a11DMWQB7z" opacity="1" fill="#ffffff" fill-opacity="1"></use><g><use xlink:href="#a11DMWQB7z" opacity="1" fill-opacity="0" stroke="#000000" stroke-width="1" stroke-opacity="0"></use></g></g><g><use xlink:href="#aqU2RjNJE" opacity="1" fill="#000000" fill-opacity="0"></use><g><use xlink:href="#aqU2RjNJE" opacity="1" fill-opacity="0" stroke="#000000" stroke-width="1" stroke-opacity="0"></use></g></g><g><use xlink:href="#cxreuGHOn" opacity="1" fill="#ffffff" fill-opacity="1"></use><g><use xlink:href="#cxreuGHOn" opacity="1" fill-opacity="0" stroke="#000000" stroke-width="1" stroke-opacity="0"></use></g></g><g><use xlink:href="#a1lg3xmoY" opacity="1" fill="#000000" fill-opacity="0"></use><g><use xlink:href="#a1lg3xmoY" opacity="1" fill-opacity="0" stroke="#000000" stroke-width="1" stroke-opacity="0"></use></g></g><g><use xlink:href="#ePmVsIg82" opacity="1" fill="#ffffff" fill-opacity="1"></use><g><use xlink:href="#ePmVsIg82" opacity="1" fill-opacity="0" stroke="#000000" stroke-width="1" stroke-opacity="0"></use></g></g><g><use xlink:href="#a3XH95TNPr" opacity="1" fill="#000000" fill-opacity="0"></use><g><use xlink:href="#a3XH95TNPr" opacity="1" fill-opacity="0" stroke="#000000" stroke-width="1" stroke-opacity="0"></use></g></g><g><use xlink:href="#drydJILXR" opacity="1" fill="#ffffff" fill-opacity="1"></use><g><use xlink:href="#drydJILXR" opacity="1" fill-opacity="0" stroke="#000000" stroke-width="1" stroke-opacity="0"></use></g></g><g><use xlink:href="#c7ulpvo17" opacity="1" fill="#000000" fill-opacity="0"></use><g><use xlink:href="#c7ulpvo17" opacity="1" fill-opacity="0" stroke="#000000" stroke-width="1" stroke-opacity="0"></use></g></g><g><use xlink:href="#b5Z8d4WjfB" opacity="1" fill="#ffffff" fill-opacity="1"></use><g><use xlink:href="#b5Z8d4WjfB" opacity="1" fill-opacity="0" stroke="#000000" stroke-width="1" stroke-opacity="0"></use></g></g><g><use xlink:href="#a4sGVuudjy" opacity="1" fill="#000000" fill-opacity="0"></use><g><use xlink:href="#a4sGVuudjy" opacity="1" fill-opacity="0" stroke="#000000" stroke-width="1" stroke-opacity="0"></use></g></g><g><use xlink:href="#b1VFp9CJf5" opacity="1" fill="#ffffff" fill-opacity="1"></use><g><use xlink:href="#b1VFp9CJf5" opacity="1" fill-opacity="0" stroke="#000000" stroke-width="1" stroke-opacity="0"></use></g></g><g><use xlink:href="#d1p4Bu3Jph" opacity="1" fill="#000000" fill-opacity="0"></use><g><use xlink:href="#d1p4Bu3Jph" opacity="1" fill-opacity="0" stroke="#000000" stroke-width="1" stroke-opacity="0"></use></g></g><g><use xlink:href="#e6ptuDpwX5" opacity="1" fill="#ffffff" fill-opacity="1"></use><g><use xlink:href="#e6ptuDpwX5" opacity="1" fill-opacity="0" stroke="#000000" stroke-width="1" stroke-opacity="0"></use></g></g><g><use xlink:href="#a2Utxsk9K" opacity="1" fill="#000000" fill-opacity="0"></use><g><use xlink:href="#a2Utxsk9K" opacity="1" fill-opacity="0" stroke="#000000" stroke-width="1" stroke-opacity="0"></use></g></g><g><use xlink:href="#a4PRDnmj9" opacity="1" fill="#ffffff" fill-opacity="1"></use><g><use xlink:href="#a4PRDnmj9" opacity="1" fill-opacity="0" stroke="#000000" stroke-width="1" stroke-opacity="0"></use></g></g><g><use xlink:href="#c1RmEcdxuj" opacity="1" fill="#000000" fill-opacity="0"></use><g><use xlink:href="#c1RmEcdxuj" opacity="1" fill-opacity="0" stroke="#000000" stroke-width="1" stroke-opacity="0"></use></g></g><g><use xlink:href="#iuJzvpmoL" opacity="1" fill="#ffffff" fill-opacity="1"></use><g><use xlink:href="#iuJzvpmoL" opacity="1" fill-opacity="0" stroke="#000000" stroke-width="1" stroke-opacity="0"></use></g></g><g><use xlink:href="#d1Z61arvcN" opacity="1" fill="#000000" fill-opacity="0"></use><g><use xlink:href="#d1Z61arvcN" opacity="1" fill-opacity="0" stroke="#000000" stroke-width="1" stroke-opacity="0"></use></g></g><g><use xlink:href="#b1sLMKQBCv" opacity="1" fill="#ffffff" fill-opacity="1"></use><g><use xlink:href="#b1sLMKQBCv" opacity="1" fill-opacity="0" stroke="#000000" stroke-width="1" stroke-opacity="0"></use></g></g><g><use xlink:href="#b1OynALg5O" opacity="1" fill="#000000" fill-opacity="0"></use><g><use xlink:href="#b1OynALg5O" opacity="1" fill-opacity="0" stroke="#000000" stroke-width="1" stroke-opacity="0"></use></g></g><g><use xlink:href="#dDp8MEJXo" opacity="1" fill="#ffffff" fill-opacity="1"></use><g><use xlink:href="#dDp8MEJXo" opacity="1" fill-opacity="0" stroke="#000000" stroke-width="1" stroke-opacity="0"></use></g></g><g><use xlink:href="#bB3Auodhh" opacity="1" fill="#000000" fill-opacity="0"></use><g><use xlink:href="#bB3Auodhh" opacity="1" fill-opacity="0" stroke="#000000" stroke-width="1" stroke-opacity="0"></use></g></g><g><use xlink:href="#f5f1mRb6c" opacity="1" fill="#ffffff" fill-opacity="1"></use><g><use xlink:href="#f5f1mRb6c" opacity="1" fill-opacity="0" stroke="#000000" stroke-width="1" stroke-opacity="0"></use></g></g><g><use xlink:href="#a4azD7gNUh" opacity="1" fill="#000000" fill-opacity="0"></use><g><use xlink:href="#a4azD7gNUh" opacity="1" fill-opacity="0" stroke="#000000" stroke-width="1" stroke-opacity="0"></use></g></g><g><use xlink:href="#a69FzBDeC9" opacity="1" fill="#ffffff" fill-opacity="1"></use><g><use xlink:href="#a69FzBDeC9" opacity="1" fill-opacity="0" stroke="#000000" stroke-width="1" stroke-opacity="0"></use></g></g><g><use xlink:href="#av4Culgvk" opacity="1" fill="#000000" fill-opacity="0"></use><g><use xlink:href="#av4Culgvk" opacity="1" fill-opacity="0" stroke="#000000" stroke-width="1" stroke-opacity="0"></use></g></g><g><use xlink:href="#ctS5C1u5P" opacity="1" fill="#ffffff" fill-opacity="1"></use><g><use xlink:href="#ctS5C1u5P" opacity="1" fill-opacity="0" stroke="#000000" stroke-width="1" stroke-opacity="0"></use></g></g><g><use xlink:href="#cFbiPnexT" opacity="1" fill="#000000" fill-opacity="0"></use><g><use xlink:href="#cFbiPnexT" opacity="1" fill-opacity="0" stroke="#000000" stroke-width="1" stroke-opacity="0"></use></g></g><g><use xlink:href="#baWIkB8T0" opacity="1" fill="#ffffff" fill-opacity="1"></use><g><use xlink:href="#baWIkB8T0" opacity="1" fill-opacity="0" stroke="#000000" stroke-width="1" stroke-opacity="0"></use></g></g><g><use xlink:href="#aqHbjvwVT" opacity="1" fill="#000000" fill-opacity="0"></use><g><use xlink:href="#aqHbjvwVT" opacity="1" fill-opacity="0" stroke="#000000" stroke-width="1" stroke-opacity="0"></use></g></g><g><use xlink:href="#ha6ho6rp0" opacity="1" fill="#ffffff" fill-opacity="1"></use><g><use xlink:href="#ha6ho6rp0" opacity="1" fill-opacity="0" stroke="#000000" stroke-width="1" stroke-opacity="0"></use></g></g><g><use xlink:href="#cytu3rkdL" opacity="1" fill="#000000" fill-opacity="0"></use><g><use xlink:href="#cytu3rkdL" opacity="1" fill-opacity="0" stroke="#000000" stroke-width="1" stroke-opacity="0"></use></g></g><g><use xlink:href="#a4Gripfny3" opacity="1" fill="#ffffff" fill-opacity="1"></use><g><use xlink:href="#a4Gripfny3" opacity="1" fill-opacity="0" stroke="#000000" stroke-width="1" stroke-opacity="0"></use></g></g><g><use xlink:href="#a1EnYVgLxY" opacity="1" fill="#000000" fill-opacity="0"></use><g><use xlink:href="#a1EnYVgLxY" opacity="1" fill-opacity="0" stroke="#000000" stroke-width="1" stroke-opacity="0"></use></g></g><g><use xlink:href="#bk6VPwK55" opacity="1" fill="#ffffff" fill-opacity="1"></use><g><use xlink:href="#bk6VPwK55" opacity="1" fill-opacity="0" stroke="#000000" stroke-width="1" stroke-opacity="0"></use></g></g><g><use xlink:href="#b9FWQf6G" opacity="1" fill="#000000" fill-opacity="0"></use><g><use xlink:href="#b9FWQf6G" opacity="1" fill-opacity="0" stroke="#000000" stroke-width="1" stroke-opacity="0"></use></g></g><g><use xlink:href="#a4davvPEk9" opacity="1" fill="#ffffff" fill-opacity="1"></use><g><use xlink:href="#a4davvPEk9" opacity="1" fill-opacity="0" stroke="#000000" stroke-width="1" stroke-opacity="0"></use></g></g><g><use xlink:href="#c8Fz7GX0o" opacity="1" fill="#000000" fill-opacity="0"></use><g><use xlink:href="#c8Fz7GX0o" opacity="1" fill-opacity="0" stroke="#000000" stroke-width="1" stroke-opacity="0"></use></g></g><g><use xlink:href="#b1DKceLHzO" opacity="1" fill="#ffffff" fill-opacity="1"></use><g><use xlink:href="#b1DKceLHzO" opacity="1" fill-opacity="0" stroke="#000000" stroke-width="1" stroke-opacity="0"></use></g></g><g><use xlink:href="#fMBQnZgca" opacity="1" fill="#000000" fill-opacity="0"></use><g><use xlink:href="#fMBQnZgca" opacity="1" fill-opacity="0" stroke="#000000" stroke-width="1" stroke-opacity="0"></use></g></g><g><use xlink:href="#c24I56gHXl" opacity="1" fill="#ffffff" fill-opacity="1"></use><g><use xlink:href="#c24I56gHXl" opacity="1" fill-opacity="0" stroke="#000000" stroke-width="1" stroke-opacity="0"></use></g></g><g><use xlink:href="#bOdnfH7SU" opacity="1" fill="#000000" fill-opacity="0"></use><g><use xlink:href="#bOdnfH7SU" opacity="1" fill-opacity="0" stroke="#000000" stroke-width="1" stroke-opacity="0"></use></g></g></g></svg>